<svg xmlns="http://www.w3.org/2000/svg" viewBox="0 0 64 64" role="img" aria-label="Princeton shield">
  <path d="M32 4C23.2 4 16 6.7 16 6.7v19.6c0 15 9.5 26.1 16 31.7 6.5-5.6 16-16.7 16-31.7V6.7S40.8 4 32 4Z" fill="#EE7F2D"/>
  <path d="M32 9.5c-6.4 0-11.8 1.7-11.8 1.7v14.6c0 11.4 7 20.3 11.8 24.7 4.8-4.4 11.8-13.3 11.8-24.7V11.2S38.4 9.5 32 9.5Z" fill="#ffffff" opacity=".96"/>
  <path d="M32 15.5c-3.3 0-6.3.6-8.1 1.1v9.3c0 7.8 4.7 14.2 8.1 17.6 3.4-3.4 8.1-9.8 8.1-17.6v-9.3c-1.8-.5-4.8-1.1-8.1-1.1Z" fill="#EE7F2D"/>
  <path d="M25.8 22.6h12.4v2.6h-4.7v11.5h-3V25.2h-4.7Z" fill="#ffffff"/>
</svg>
